# xmcd CD database file
#
# Track frame offsets:
#	150
#	19937
#	55615
#	77545
#	108955
#	131100
#	160497
#	188947
#
# Disc length: 2892 seconds
#
# Revision: 0
# Processed by: cddbd v1.5.1PL0 Copyright (c) Steve Scherf et al.
# Submitted via: CDex 1.60beta1
#
DISCID=620b4a08
DTITLE=Georgia Kelly - Gardens Of The Sun
DYEAR=0
DGENRE=New Age
TTITLE0=Mala Kavana (The Little Cafe)
TTITLE1=Sailing On The Adriatic
TTITLE2=Gypsy Boy With Roses
TTITLE3=Midnight In Maksimir
TTITLE4=Requiem
TTITLE5=Gardens Of The Sun
TTITLE6=Blue Jay
TTITLE7=Dubrovnik
EXTD=YEAR: 0
EXTT0=
EXTT1=
EXTT2=
EXTT3=
EXTT4=
EXTT5=
EXTT6=
EXTT7=
PLAYORDER=
